<svg width="50" height="50" viewBox="0 0 50 50" fill="none" xmlns="http://www.w3.org/2000/svg">
<circle cx="25" cy="25" r="25" fill="#F26119"/>
<path d="M35.7679 22.2679H28.1786C27.932 22.2679 27.7321 22.068 27.7321 21.8214V14.2321C27.7321 12.9995 26.7327 12 25.5 12C24.2673 12 23.2679 12.9995 23.2679 14.2321V21.8214C23.2679 22.068 23.068 22.2679 22.8214 22.2679H15.2321C13.9995 22.2679 13 23.2673 13 24.5C13 25.7327 13.9995 26.7321 15.2321 26.7321H22.8214C23.068 26.7321 23.2679 26.932 23.2679 27.1786V34.7679C23.2679 36.0005 24.2673 37 25.5 37C26.7327 37 27.7321 36.0005 27.7321 34.7679V27.1786C27.7321 26.932 27.932 26.7321 28.1786 26.7321H35.7679C37.0005 26.7321 38 25.7327 38 24.5C38 23.2673 37.0005 22.2679 35.7679 22.2679Z" fill="black"/>
</svg>
