<svg width="50" height="50" viewBox="0 0 50 50" fill="none" xmlns="http://www.w3.org/2000/svg">
<circle cx="25" cy="25" r="25" fill="#F26119"/>
<path d="M23.0919 24.5053L32.4443 15.1524C32.7018 14.8955 32.8435 14.552 32.8435 14.1858C32.8435 13.8193 32.7018 13.476 32.4443 13.2187L31.6248 12.3996C31.3677 12.1419 31.024 12 30.6577 12C30.2915 12 29.9482 12.1419 29.6908 12.3996L18.5553 23.535C18.2969 23.7931 18.1555 24.138 18.1565 24.5047C18.1555 24.873 18.2967 25.2175 18.5553 25.4758L29.6805 36.6004C29.9378 36.8581 30.2811 37 30.6476 37C31.0138 37 31.3571 36.8581 31.6146 36.6004L32.4339 35.7813C32.9671 35.2482 32.9671 34.3803 32.4339 33.8474L23.0919 24.5053Z" fill="black"/>
</svg>
