<svg width="45" height="45" viewBox="0 0 45 45" fill="none" xmlns="http://www.w3.org/2000/svg">
<circle cx="22.5" cy="22.5" r="22.5" fill="white"/>
<path d="M21.1683 12.328H24.8452V12.9467H26.173V12.2414C26.1732 11.5569 25.6166 11 24.9325 11H21.0811C20.3969 11 19.8403 11.5569 19.8403 12.2414V12.9467H21.1683V12.328Z" fill="#AFAFAF"/>
<path d="M29.2395 18.208H16.7738C16.4323 18.208 16.1634 18.4994 16.1909 18.84L17.2331 31.7265C17.2911 32.4459 17.8912 33 18.6121 33H27.401C28.122 33 28.722 32.4459 28.7801 31.7264L29.8222 18.84C29.8499 18.4994 29.581 18.208 29.2395 18.208V18.208ZM19.7922 31.6255C19.7783 31.6263 19.7644 31.6268 19.7506 31.6268C19.4025 31.6268 19.1103 31.3558 19.0886 31.0036L18.4355 20.4244C18.413 20.0583 18.6915 19.7433 19.0574 19.7208C19.4221 19.6987 19.7385 19.9764 19.761 20.3427L20.4139 30.9219C20.4366 31.288 20.1581 31.6028 19.7922 31.6255V31.6255ZM23.678 30.9628C23.678 31.3294 23.3808 31.6267 23.014 31.6267C22.6473 31.6267 22.35 31.3294 22.35 30.9628V20.3835C22.35 20.0167 22.6473 19.7195 23.014 19.7195C23.3806 19.7195 23.678 20.0167 23.678 20.3835V30.9628ZM27.5778 20.4226L26.9542 31.0018C26.9336 31.3546 26.6409 31.6267 26.2921 31.6267C26.279 31.6267 26.2657 31.6263 26.2525 31.6257C25.8864 31.604 25.6071 31.2898 25.6288 30.9237L26.2521 20.3444C26.2736 19.9783 26.5868 19.699 26.9539 19.7206C27.32 19.7421 27.5993 20.0565 27.5778 20.4226V20.4226Z" fill="#AFAFAF"/>
<path d="M31.5358 16.1589L31.0997 14.8517C30.9847 14.5072 30.6621 14.2747 30.2987 14.2747H15.7147C15.3515 14.2747 15.0287 14.5072 14.9139 14.8517L14.4779 16.1589C14.3938 16.411 14.5032 16.6682 14.7075 16.7964C14.7907 16.8486 14.8892 16.88 14.9975 16.88H31.0161C31.1244 16.88 31.2231 16.8486 31.3062 16.7962C31.5104 16.668 31.6199 16.4109 31.5358 16.1589Z" fill="#AFAFAF"/>
</svg>
