<svg width="50" height="50" viewBox="0 0 50 50" fill="none" xmlns="http://www.w3.org/2000/svg">
<circle cx="25" cy="25" r="25" fill="#F26119"/>
<g clip-path="url(#clip0)">
<path fill-rule="evenodd" clip-rule="evenodd" d="M38 14.46V16.6151C38 16.879 37.7518 17.0954 37.4491 17.0954H28.9234C28.342 18.3061 27.1046 19.1421 25.6721 19.1421C24.2404 19.1421 23.003 18.3061 22.4217 17.0954H13.5509C13.2487 17.0954 13 16.8785 13 16.6151V14.46C13 14.1961 13.2482 13.9798 13.5509 13.9798H22.4217C23.003 12.7691 24.2405 11.9336 25.6721 11.9336C27.1046 11.9336 28.3416 12.7691 28.9229 13.9798H37.4491C37.7522 13.9798 38 14.1957 38 14.46H38ZM23.1387 35.0198C22.5573 36.2304 21.3195 37.066 19.8874 37.066C18.4553 37.066 17.2179 36.2304 16.6365 35.0198H13.5509C13.2487 35.0198 13 34.8034 13 34.5395V32.3844C13 32.121 13.2482 31.9041 13.5509 31.9041H16.6365C17.2179 30.6935 18.4553 29.8575 19.8874 29.8575C21.3195 29.8575 22.5573 30.6935 23.1382 31.9041H37.4491C37.7523 31.9041 38 32.1205 38 32.3844V34.5395C38 34.8039 37.7513 35.0198 37.4491 35.0198H23.1387V35.0198ZM34.2952 26.1951C33.7143 27.4058 32.4764 28.2417 31.0443 28.2417C29.6118 28.2417 28.3744 27.4058 27.793 26.1951H13.5509C13.2487 26.1951 13 25.9787 13 25.7149V23.5602C13 23.2967 13.2482 23.0799 13.5509 23.0799H27.7935C28.3743 21.8697 29.6118 21.0337 31.0443 21.0337C32.4764 21.0337 33.7139 21.8697 34.2952 23.0799H37.4491C37.7522 23.0799 38 23.2963 38 23.5602V25.7148C38 25.9791 37.7518 26.195 37.4491 26.195H34.2952L34.2952 26.1951Z" fill="black"/>
</g>
<defs>
<clipPath id="clip0">
<rect x="13" y="12" width="25" height="25" fill="white"/>
</clipPath>
</defs>
</svg>
