<svg width="187" height="187" viewBox="0 0 187 187" fill="none" xmlns="http://www.w3.org/2000/svg">
<g style="mix-blend-mode:multiply" opacity="0.5">
<g clip-path="url(#clip0)">
<path d="M93.5 0.091629C41.9893 0.091629 0.0876465 41.9933 0.0876465 93.504C0.0876465 145.015 41.9893 186.916 93.5 186.916C145.011 186.916 186.912 145.007 186.912 93.504C186.912 42.0006 145.011 0.091629 93.5 0.091629ZM93.5 172.445C49.9775 172.445 14.5589 137.034 14.5589 93.504C14.5589 49.9742 49.9775 14.5629 93.5 14.5629C137.022 14.5629 172.441 49.9742 172.441 93.504C172.441 137.034 137.03 172.445 93.5 172.445Z" fill="black"/>
<path d="M129.678 85.6172H100.736V56.6747C100.736 52.6806 97.5014 49.4389 93.5 49.4389C89.4986 49.4389 86.2642 52.6806 86.2642 56.6747V85.6172H57.3217C53.3203 85.6172 50.0859 88.8589 50.0859 92.853C50.0859 96.8471 53.3203 100.089 57.3217 100.089H86.2642V129.031C86.2642 133.025 89.4986 136.267 93.5 136.267C97.5014 136.267 100.736 133.025 100.736 129.031V100.089H129.678C133.68 100.089 136.914 96.8471 136.914 92.853C136.914 88.8589 133.68 85.6172 129.678 85.6172Z" fill="black"/>
</g>
</g>
<defs>
<clipPath id="clip0">
<rect x="0.0876465" y="0.091629" width="186.825" height="186.825" fill="white"/>
</clipPath>
</defs>
</svg>
