<svg xmlns="http://www.w3.org/2000/svg" viewBox="0 0 300 300"><title>shutter</title><path d="M297,3V297H3V3H297m3-3H0V300H300V0Z" fill="gray"/><rect x="98.5" width="3" height="300" fill="gray"/><rect x="198.5" width="3" height="300" fill="gray"/><rect y="98.5" width="300" height="3" fill="gray"/><rect y="198.5" width="300" height="3" fill="gray"/><path d="M150,215.078a34.563,34.563,0,0,0-14.935,3.348V240.88L159.546,216.4A34.935,34.935,0,0,0,150,215.078Z" fill="gray"/><path d="M174.694,225.306h0a34.56,34.56,0,0,0-12.928-8.193l-1.058,1.058-14.819,14.82H180.51A34.92,34.92,0,0,0,174.694,225.306Z" fill="gray"/><path d="M183.6,259.546A34.932,34.932,0,0,0,184.922,250a34.562,34.562,0,0,0-3.348-14.935H159.12Z" fill="gray"/><path d="M167.009,280.51a34.921,34.921,0,0,0,7.684-5.816h0a34.563,34.563,0,0,0,8.193-12.928l-11.908-11.908-3.969-3.969V280.51Z" fill="gray"/><path d="M159.12,264.935,140.454,283.6A34.924,34.924,0,0,0,150,284.922a34.563,34.563,0,0,0,14.935-3.348V259.12l-5.815,5.815Z" fill="gray"/><path d="M125.306,274.694h0a34.563,34.563,0,0,0,12.928,8.193l13.855-13.855,2.022-2.022H119.49A34.929,34.929,0,0,0,125.306,274.694Z" fill="gray"/><path d="M135.065,259.12,116.4,240.454A34.935,34.935,0,0,0,115.078,250a34.56,34.56,0,0,0,3.348,14.935H140.88l-5.815-5.815Z" fill="gray"/><path d="M132.991,219.49a34.931,34.931,0,0,0-7.684,5.816,34.563,34.563,0,0,0-8.193,12.928l15.877,15.877V219.49Z" fill="gray"/></svg>